<svg width="38" height="31" viewBox="0 0 38 31" fill="none" xmlns="http://www.w3.org/2000/svg">
<path d="M27.5766 13.4083C29.9166 11.0866 33.7099 11.0866 36.0499 13.4083C38.3899 15.7316 38.3899 19.4983 36.0499 21.82L26.9716 30.8333L17.8933 21.82C15.5533 19.4983 15.5533 15.7316 17.8933 13.4083C20.2333 11.0866 24.0266 11.0866 26.3666 13.4083L26.9716 14.0083L27.5766 13.4083ZM30.7099 2.9283C32.2766 4.49997 33.2149 6.4583 33.5249 8.49163C31.3033 8.0783 28.9599 8.47497 26.9716 9.67997C23.3883 7.5083 18.6483 7.9633 15.5449 11.0433C11.9933 14.5683 11.8949 20.235 15.2483 23.8783L15.5449 24.1866L19.5799 28.1933L16.9716 30.8083L2.83826 16.655C-0.666737 12.7283 -0.535071 6.6983 3.23326 2.9283C7.00826 -0.845033 13.0466 -0.9717 16.9733 2.5483C20.8883 -0.9667 26.9383 -0.850033 30.7099 2.9283Z" fill="#28524B"/>
</svg>
