<svg width="36" height="36" viewBox="0 0 36 36" fill="none" xmlns="http://www.w3.org/2000/svg">
<path d="M24.305 0.667969C25.2255 0.667969 25.9717 1.41416 25.9717 2.33464V3.99964L34.305 4.0013V14.0013L30.9383 13.9996L35.5496 26.6601C35.8225 27.388 35.9717 28.1764 35.9717 28.9997C35.9717 32.6816 32.9869 35.6663 29.305 35.6663C26.1997 35.6663 23.5902 33.5432 22.8491 30.6693L15.7613 30.6692C15.0208 33.544 12.411 35.668 9.30501 35.668C6.06356 35.668 3.36243 33.3546 2.76257 30.2888C1.69764 29.733 0.97168 28.6186 0.97168 27.3346V19.0013H15.9717C15.9717 19.856 16.6151 20.5605 17.444 20.6568L17.6383 20.668H20.9717C21.8264 20.668 22.5309 20.0246 22.6271 19.1957L22.6383 19.0013V4.0013H17.6383V0.667969H24.305ZM9.30501 25.668C7.46406 25.668 5.97168 27.1604 5.97168 29.0013C5.97168 30.8423 7.46406 32.3346 9.30501 32.3346C11.146 32.3346 12.6383 30.8423 12.6383 29.0013C12.6383 27.1604 11.146 25.668 9.30501 25.668ZM29.305 25.668C27.4641 25.668 25.9717 27.1604 25.9717 29.0013C25.9717 30.8423 27.4641 32.3346 29.305 32.3346C31.146 32.3346 32.6383 30.8423 32.6383 29.0013C32.6383 27.1604 31.146 25.668 29.305 25.668ZM14.305 4.0013C15.2255 4.0013 15.9717 4.74749 15.9717 5.66797V17.3346H0.97168V5.66797C0.97168 4.74749 1.71787 4.0013 2.63835 4.0013H14.305ZM30.9717 7.33464H25.9717V10.668H30.9717V7.33464ZM12.6383 7.33464H4.30501V9.0013H12.6383V7.33464Z" fill="#28524B"/>
</svg>
