<svg width="31" height="40" viewBox="0 0 31 40" fill="none" xmlns="http://www.w3.org/2000/svg">
<path d="M30.6387 24.4297C26.334 35.1094 16.0215 28.6484 16.0215 28.6484C12.8575 35.0391 7.63092 39.1484 1.59967 39.1719C0.341853 39.1719 0.30279 37.2656 1.59967 37.2656C6.63092 37.2422 11.0137 33.9297 13.8809 28.6641C10.67 29.9062 4.61529 30.8438 1.25592 22.2422C9.77154 18.7344 13.6856 23.1172 15.1856 25.7969C15.959 23.8906 16.5137 21.8203 16.8731 19.5703C16.8731 19.5703 5.95904 21.2812 5.19342 11.9062C14.4981 8.16406 17.1153 17.8984 17.1153 17.8984C17.2403 16.5938 17.3731 13.7891 17.3731 13.7266C17.3731 13.7266 9.06842 7.96875 14.3965 0.820312C24.1309 4.17969 19.1934 13.5078 19.1934 13.5078C19.2325 13.6328 19.2325 15.3672 19.1934 16.1172C19.1934 16.1172 22.7247 9.16406 29.8497 11.625C29.5215 22.0938 18.7637 19.9375 18.7637 19.9375C18.42 22.0781 17.8887 24.1094 17.2012 25.9922C17.2012 25.9922 23.6856 18.8203 30.6387 24.4297Z" fill="#28524B"/>
</svg>
