<svg width="35" height="34" viewBox="0 0 35 34" fill="none" xmlns="http://www.w3.org/2000/svg">
<path d="M0.978369 33.6654L3.2317 25.3854C1.74693 22.8401 0.966862 19.9454 0.971702 16.9987C0.971702 7.7937 8.43337 0.332031 17.6384 0.332031C26.8434 0.332031 34.305 7.7937 34.305 16.9987C34.305 26.2037 26.8434 33.6654 17.6384 33.6654C14.693 33.6701 11.7995 32.8906 9.25504 31.407L0.978369 33.6654ZM11.6234 9.1787C11.4081 9.19206 11.1978 9.24875 11.005 9.34536C10.8242 9.44775 10.6592 9.57574 10.515 9.72536C10.315 9.9137 10.2017 10.077 10.08 10.2354C9.46406 11.037 9.13272 12.0211 9.13837 13.032C9.1417 13.8487 9.35504 14.6437 9.68837 15.387C10.37 16.8904 11.4917 18.482 12.9734 19.957C13.33 20.312 13.6784 20.6687 14.0534 21.0004C15.8924 22.6195 18.0838 23.7871 20.4534 24.4104L21.4017 24.5554C21.71 24.572 22.0184 24.5487 22.3284 24.5337C22.8138 24.5086 23.2877 24.3772 23.7167 24.1487C23.9934 24.002 24.1234 23.9287 24.355 23.782C24.355 23.782 24.4267 23.7354 24.5634 23.632C24.7884 23.4654 24.9267 23.347 25.1134 23.152C25.2517 23.0087 25.3717 22.8404 25.4634 22.6487C25.5934 22.377 25.7234 21.8587 25.7767 21.427C25.8167 21.097 25.805 20.917 25.8 20.8054C25.7934 20.627 25.645 20.442 25.4834 20.3637L24.5134 19.9287C24.5134 19.9287 23.0634 19.297 22.1784 18.8937C22.0851 18.853 21.9851 18.8299 21.8834 18.8254C21.7693 18.8137 21.6541 18.8265 21.5455 18.863C21.4368 18.8995 21.3372 18.9588 21.2534 19.037V19.0337C21.245 19.0337 21.1334 19.1287 19.9284 20.5887C19.8592 20.6816 19.7639 20.7519 19.6547 20.7905C19.5455 20.829 19.4272 20.8342 19.315 20.8054C19.2064 20.7763 19.1001 20.7396 18.9967 20.6954C18.79 20.6087 18.7184 20.5754 18.5767 20.5137L18.5684 20.5104C17.6149 20.0941 16.7321 19.5318 15.9517 18.8437C15.7417 18.6604 15.5467 18.4604 15.3467 18.267C14.691 17.6391 14.1196 16.9287 13.6467 16.1537L13.5484 15.9954C13.4777 15.889 13.4206 15.7742 13.3784 15.6537C13.315 15.4087 13.48 15.212 13.48 15.212C13.48 15.212 13.885 14.7687 14.0734 14.5287C14.2302 14.3292 14.3765 14.1217 14.5117 13.907C14.7084 13.5904 14.77 13.2654 14.6667 13.0137C14.2 11.8737 13.7167 10.7387 13.22 9.61203C13.1217 9.3887 12.83 9.2287 12.565 9.19703C12.475 9.18703 12.385 9.17703 12.295 9.17036C12.0712 9.15924 11.8469 9.16147 11.6234 9.17703V9.1787Z" fill="#28524B"/>
</svg>
